<svg width="64" height="64" viewBox="0 0 64 64" fill="none" xmlns="http://www.w3.org/2000/svg">
<path d="M32 5C16.96 5 5 16.96 5 32C5 47.04 16.96 59 32 59C47.04 59 59 47.04 59 32C59 16.96 47.04 5 32 5ZM32 54C19.82 54 10 44.18 10 32C10 19.82 19.82 10 32 10C44.18 10 54 19.82 54 32C54 44.18 44.18 54 32 54Z" fill="url(#paint0_linear_101_2)"/>
<path d="M32 15C22.59 15 15 22.59 15 32C15 41.41 22.59 49 32 49C41.41 49 49 41.41 49 32C49 22.59 41.41 15 32 15Z" fill="url(#paint1_radial_101_2)"/>
<defs>
<linearGradient id="paint0_linear_101_2" x1="32" y1="5" x2="32" y2="59" gradientUnits="userSpaceOnUse">
<stop stop-color="#00DDFF"/>
<stop offset="1" stop-color="#008CFF"/>
</linearGradient>
<radialGradient id="paint1_radial_101_2" cx="0" cy="0" r="1" gradientUnits="userSpaceOnUse" gradientTransform="translate(32 15) rotate(90) scale(34)">
<stop stop-color="#00DDFF"/>
<stop offset="1" stop-color="#00529B" stop-opacity="0.5"/>
</radialGradient>
</defs>
</svg>